<svg viewBox="0 0 130.875 158.75">
  <path d="M8.266 158.73V.02h53.302q12.971 0 23.545 2.616 10.682 2.616 18.203 7.957 7.521 5.341 11.554 13.517 4.143 8.175 4.143 19.293-.11 11.118-5.996 19.948-5.777 8.829-17.113 13.407 6.867 1.744 11.881 5.232 5.014 3.488 8.284 8.284 3.38 4.687 4.906 10.356 1.635 5.559 1.635 11.554 0 11.445-3.924 20.165-3.925 8.72-11.228 14.607-7.303 5.886-17.767 8.829-10.464 2.943-23.545 2.943zm30.738-69.98v45.235h27.251q12.535-.109 19.076-6.104 6.649-6.104 6.649-15.914.109-10.9-5.886-17.005-5.995-6.104-18.53-6.213zm0-22.128h22.782q12.753-.11 19.62-5.341 6.868-5.233 6.977-15.37 0-11.118-6.867-15.914-6.868-4.905-19.839-5.014H39.004z"/>
</svg>
