<svg viewBox="0 0 215.059 79.375">
  <path d="M173.907 46.773l-8.393 9.21v23.382h-15.37V.01h15.37v36.353l7.194-9.701L192.002.01h18.748l-26.705 35.1 27.686 44.255h-18.203z"/>
  <path d="M173.907 46.773l10.138-11.663 27.686 44.255h-18.203z"/>
  <path d="M155.516 54.512q-.381 5.995-2.616 10.791-2.18 4.796-5.886 8.175-3.706 3.38-8.83 5.233-5.123 1.798-11.336 1.798-7.03 0-12.48-2.562-5.45-2.616-9.157-7.248-3.706-4.687-5.668-11.227-1.962-6.54-1.962-14.389V34.401q0-7.903 2.07-14.443 2.072-6.54 5.887-11.227 3.815-4.687 9.211-7.249 5.45-2.616 12.208-2.616 6.54 0 11.61 1.853 5.122 1.853 8.72 5.287 3.596 3.433 5.667 8.393 2.072 4.96 2.617 11.173h-15.26q-.219-3.543-1.09-6.214-.818-2.67-2.453-4.414-1.581-1.799-4.034-2.67-2.398-.927-5.777-.927-3.542 0-6.158 1.526-2.616 1.526-4.36 4.469-1.69 2.943-2.508 7.249-.817 4.25-.817 9.7v10.792q0 11.718 3.27 17.332 3.325 5.613 10.464 5.613 5.995 0 9.484-3.16 3.488-3.216 3.87-10.356z"/>
  <path d="M88.394 62.796H64.576L59.89 79.365H43.757L69.754.01h13.898l25.507 79.355H93.026zM68.337 49.77h16.46l-8.121-29.212z"/>
  <path d="M52.812 79.365H37.66v-34.39H15.206v34.39H0V.01h15.206v32.538H37.66V.01h15.152z"/>
</svg>
