<svg viewBox="0 0 276.17 79.375">
  <path d="M31.72 57.172L46.708 0h16.895L39.568 79.354H23.981L0 0h16.895z"/><path d="M107.982 44.582H75.39v22.4h38.097v12.372H60.02V0h53.302v12.48H75.39v20.003h32.592zm59.303 34.772h-15.26l-22.073-51.177v51.177h-15.424V0h15.424l21.91 50.959L151.915 0h15.37zM221.529 0l.054 52.594q0 6.649-1.853 11.827-1.798 5.177-5.286 8.774-3.434 3.543-8.448 5.396-4.96 1.853-11.336 1.853-5.995 0-10.846-1.853-4.796-1.853-8.23-5.396-3.433-3.542-5.34-8.72-1.854-5.232-1.854-11.881L168.445 0h15.314l.055 52.594q.054 7.685 2.78 11.609 2.779 3.924 8.066 3.924 5.613 0 8.556-3.924 2.998-3.924 3.052-11.61L206.323 0zm49.136 44.582h-32.592v22.4h38.097v12.372h-53.466V0h53.302v12.48h-37.933v20.003h32.592z"/>
</svg>
