<svg viewBox="0 0 238.119 78.375">
  <g stroke="#ff9e0d">
    <path d="M232.114 44.092h-24.592v22.4h30.097v12.372h-45.467V-.489h45.302v12.48h-29.932v20.002h24.592z"/>
    <path d="M192.139-.468l.048 52.63q0 6.653-1.655 11.835-1.605 5.18-4.72 8.78-3.066 3.545-7.543 5.4-4.429 1.854-10.122 1.854-5.354 0-9.685-1.855-4.283-1.854-7.349-5.4-3.065-3.544-4.768-8.725-1.656-5.236-1.656-11.89l.05-52.63h13.674l.049 52.63q.048 7.69 2.482 11.618 2.482 3.926 7.203 3.926 5.012 0 7.64-3.926 2.677-3.927 2.725-11.618l.049-52.63z"/>
    <path d="M144.752 78.864h-15.26L113.42 35.687v43.177H97.995V-.489h15.424l15.91 42.958.053-42.958h15.37z"/>
    <path d="M144.752 78.864h-15.26L113.42 35.687 97.995-.489h15.424l15.91 42.958z"/>
    <path d="M92.655 44.092H68.063v22.4H98.16v12.372H52.693V-.489h45.302v12.48H68.063v20.002h24.592z"/>
    <path d="M32.393 56.682L47.381-.489h16.895L40.241 78.864H24.654L.674-.489h16.894z"/>
  </g>
</svg>
